<?xml version="1.0" standalone="no"?>
<!DOCTYPE svg PUBLIC "-//W3C//DTD SVG 20010904//EN"
 "http://www.w3.org/TR/2001/REC-SVG-20010904/DTD/svg10.dtd">
<svg version="1.0" xmlns="http://www.w3.org/2000/svg"
 width="183.000000pt" height="275.000000pt" viewBox="0 0 183.000000 275.000000"
 preserveAspectRatio="xMidYMid meet">

<g transform="translate(0.000000,275.000000) scale(0.100000,-0.100000)"
fill="#000000" stroke="none">
<path d="M810 1578 c0 -9 5 -20 10 -23 13 -8 13 5 0 25 -8 13 -10 13 -10 -2z"/>
<path d="M688 1427 c5 -93 4 -94 -23 -115 -33 -26 -46 -27 -85 -7 -33 17 -38
14 -14 -9 23 -24 83 -20 111 6 l23 22 38 -45 c20 -24 45 -52 55 -61 9 -10 14
-18 10 -19 -17 -1 64 -28 88 -28 15 -1 43 -8 62 -16 20 -8 39 -15 42 -15 11 0
4 29 -13 50 -15 18 -30 23 -84 25 -80 2 -133 30 -143 75 -4 19 -11 27 -20 24
-17 -7 -23 14 -35 116 -5 46 -11 85 -13 87 -2 2 -2 -39 1 -90z"/>
<path d="M852 1470 c0 -19 2 -27 5 -17 2 9 2 25 0 35 -3 9 -5 1 -5 -18z"/>
<path d="M680 881 c14 -11 30 -21 35 -21 11 0 -7 14 -40 31 -13 7 -12 3 5 -10z"/>
<path d="M1072 889 c2 -7 -1 -13 -7 -14 -5 0 -20 -6 -32 -13 -12 -7 -39 -16
-60 -21 -33 -8 -34 -9 -10 -10 15 -1 42 7 60 16 18 9 35 17 39 18 16 1 30 23
19 30 -7 3 -10 1 -9 -6z"/>
</g>
</svg>
